<?xml version="1.0" standalone="no"?>
<!DOCTYPE svg PUBLIC "-//W3C//DTD SVG 20010904//EN"
 "http://www.w3.org/TR/2001/REC-SVG-20010904/DTD/svg10.dtd">
<svg version="1.0" xmlns="http://www.w3.org/2000/svg"
 width="700.000000pt" height="700.000000pt" viewBox="0 0 700.000000 700.000000"
 preserveAspectRatio="xMidYMid meet">
<metadata>
Created by potrace 1.14, written by Peter Selinger 2001-2017
</metadata>
<g transform="translate(0.000000,700.000000) scale(0.100000,-0.100000)"
fill="#000000" stroke="none">
<path d="M3148 6067 l-3 -351 -172 0 -173 0 0 -348 0 -348 -22 -1 c-13 -1 -90
-2 -173 -3 l-150 -1 -3 -347 c-2 -322 -4 -348 -20 -349 -9 -1 -87 -2 -172 -3
l-155 -1 -3 -175 -2 -175 -175 1 -175 2 2 -351 3 -351 348 0 348 1 -3 -116 -3
-116 -330 -1 c-181 -1 -338 -2 -348 -3 -16 -1 -17 -14 -15 -173 l3 -173 170 0
170 -1 3 -176 2 -175 158 -1 c86 0 165 -1 175 -1 16 -1 17 -25 17 -350 l0
-349 175 2 175 1 0 -176 0 -176 163 -1 c89 0 168 0 175 -1 9 -1 12 -78 12
-349 l0 -348 350 0 350 0 2 350 3 350 173 -1 173 0 -3 176 -3 176 178 -1 177
-1 0 349 c0 271 3 348 13 349 6 0 85 1 175 1 l162 0 0 177 0 176 175 -1 175
-1 -2 176 -3 175 -347 0 -348 0 0 116 0 117 338 -2 c185 0 343 1 350 3 9 3 12
82 12 351 l0 348 -172 -1 -173 0 -3 176 -2 175 -158 -1 c-86 -1 -165 0 -174 2
-16 4 -18 31 -20 351 l-3 346 -160 2 c-88 0 -166 2 -172 2 -10 1 -13 78 -13
349 l0 348 -172 0 -173 0 -3 351 -2 350 -350 0 -350 0 -2 -350z m-346 -3267
l-3 -116 -175 0 -174 -1 0 117 0 116 178 0 177 0 -3 -116z m1748 0 l0 -116
-174 0 -175 0 -3 116 -3 116 178 0 177 0 0 -116z m-352 -349 l-3 -116 -697 -1
-698 0 0 116 0 116 700 0 701 0 -3 -115z"/>
</g>
</svg>
